<?xml version="1.0" standalone="no"?>
<!DOCTYPE svg PUBLIC "-//W3C//DTD SVG 20010904//EN"
 "http://www.w3.org/TR/2001/REC-SVG-20010904/DTD/svg10.dtd">
<svg version="1.0" xmlns="http://www.w3.org/2000/svg"
 width="260.000000pt" height="260.000000pt" viewBox="0 0 260.000000 260.000000"
 preserveAspectRatio="xMidYMid meet">
<metadata>
Created by potrace 1.11, written by Peter Selinger 2001-2013
</metadata>
<g transform="translate(0.000000,260.000000) scale(0.100000,-0.100000)"
fill="#000000" stroke="none">
<path d="M806 2475 c-14 -13 -26 -30 -27 -37 0 -7 -2 -21 -4 -31 -2 -10 17
-43 46 -77 27 -33 49 -63 49 -69 0 -5 18 -47 40 -92 22 -46 40 -91 40 -102 0
-34 104 -166 133 -168 6 0 21 -3 32 -5 92 -21 200 -3 239 39 36 39 82 108 91
137 12 38 13 120 2 120 -6 0 -8 3 -4 6 10 10 -19 70 -47 101 -14 15 -26 31
-26 35 0 10 -91 62 -115 66 -49 7 -101 8 -110 1 -5 -4 -12 -7 -15 -7 -13 2
-50 -14 -50 -22 0 -4 -11 -11 -25 -14 -14 -4 -25 -11 -25 -16 0 -6 -3 -10 -7
-10 -12 0 -73 55 -73 65 -1 16 -69 85 -95 95 -18 7 -29 4 -49 -15z"/>
<path d="M824 1749 c-2 -4 -4 -79 -3 -166 2 -263 4 -246 -28 -238 -45 12 -137
14 -150 3 -7 -6 -13 -7 -13 -4 0 4 -13 -1 -30 -11 -16 -9 -30 -20 -30 -23 0
-4 -13 -19 -29 -36 -53 -55 -66 -159 -28 -229 9 -17 20 -39 26 -51 9 -19 59
-72 151 -157 19 -18 56 -45 83 -60 37 -22 47 -33 48 -55 0 -15 1 -160 2 -322
l2 -295 390 1 c215 1 409 5 432 9 23 4 50 16 59 26 9 11 22 19 29 19 14 0 55
42 55 57 0 5 9 18 20 28 11 10 18 20 15 23 -2 3 0 13 6 24 6 11 11 53 11 94 0
64 -4 82 -32 136 -32 62 -74 108 -97 108 -6 0 -13 3 -15 8 -1 4 -28 24 -58 45
-105 72 -94 40 -95 284 l0 216 52 38 c29 22 59 39 68 39 16 0 45 22 45 34 0 4
13 19 28 36 72 75 98 191 60 270 -21 45 -112 130 -139 130 -11 0 -30 5 -42 12
-25 14 -784 20 -793 7z"/>
</g>
</svg>
